<?xml version="1.0" ?><svg height="45" id="svg2" version="1.1" width="45" xml:space="preserve" xmlns="http://www.w3.org/2000/svg" xmlns:cc="http://creativecommons.org/ns#" xmlns:dc="http://purl.org/dc/elements/1.1/" xmlns:inkscape="http://www.inkscape.org/namespaces/inkscape" xmlns:rdf="http://www.w3.org/1999/02/22-rdf-syntax-ns#" xmlns:svg="http://www.w3.org/2000/svg"><defs id="defs6"><clipPath id="clipPath16"><path d="M 0,0 0,36 36,36 36,0 0,0" id="path18"/></clipPath></defs><g id="g10" transform="matrix(1.25,0,0,-1.25,0,45)"><g id="g12"><g clip-path="url(#clipPath16)" id="g14"><g id="g20"><g id="g22"><g id="g24"><path d="m -42.796,29.036 0,-20.985 c 0,-0.846 0.687,-1.533 1.533,-1.533 l 32.935,0 c 0.846,0 1.533,0.687 1.533,1.533 l 0,20.985 c 0,0.846 -0.687,1.533 -1.533,1.533 l -32.935,0 c -0.846,0 -1.533,-0.687 -1.533,-1.533 z" id="path26" style="fill:#2b2b2b;fill-opacity:1;fill-rule:evenodd;stroke:none"/></g></g><g id="g28"><g id="g30"><path d="m -24.795,15.195 -18,12.227 0,1.613 c 0,0.846 0.687,1.533 1.533,1.533 l 32.935,0 c 0.846,0 1.533,-0.687 1.533,-1.533 l 0,-1.394 -18.001,-12.446 z" id="path32" style="fill:#525252;fill-opacity:1;fill-rule:evenodd;stroke:none"/></g></g><g id="g34"><g id="g36"><path d="m 0.719,28.073 0,-20.145 c 0,-0.812 0.66,-1.471 1.472,-1.471 l 31.615,0 c 0.812,0 1.471,0.659 1.471,1.471 l 0,20.145 c 0,0.812 -0.659,1.471 -1.471,1.471 l -31.615,0 c -0.812,0 -1.472,-0.659 -1.472,-1.471 z" id="path38" style="fill:none;stroke:#000000;stroke-width:1.44000006;stroke-linecap:round;stroke-linejoin:miter;stroke-miterlimit:10;stroke-opacity:1;stroke-dasharray:none"/></g></g><g id="g40"><g id="g42"><path d="m 17.999,14.786 -17.278,11.737 0,1.549 c 0,0.812 0.66,1.471 1.472,1.471 l 31.614,0 c 0.813,0 1.473,-0.659 1.473,-1.471 l 0,-1.339 -17.281,-11.947 z" id="path44" style="fill:none;stroke:#000000;stroke-width:1.44000006;stroke-linecap:round;stroke-linejoin:miter;stroke-miterlimit:10;stroke-opacity:1;stroke-dasharray:none"/></g></g></g></g></g></g></svg>