<svg xmlns="http://www.w3.org/2000/svg" xmlns:xlink="http://www.w3.org/1999/xlink" width="100" height="100" viewBox="0 0 100 100"><g><g transform="translate(50 50) scale(0.69 0.69) rotate(0) translate(-50 -50)" style="fill:#95a0aa;"><svg fill="#95a0aa" xmlns="http://www.w3.org/2000/svg" xmlns:xlink="http://www.w3.org/1999/xlink" version="1.1" x="0px" y="0px" viewBox="0 0 512 512" enable-background="new 0 0 512 512" xml:space="preserve"><g><path d="M488.047,83.664H23.922C10.734,83.664,0,94.414,0,107.633v296.75c0,13.203,10.734,23.953,23.922,23.953h464.125   c13.203,0,23.953-10.75,23.953-23.953v-296.75C512,94.414,501.25,83.664,488.047,83.664z M493.797,410.039l-475.594,0.062   l0.031-308.25h475.562V410.039z"></path><path d="M250.219,307.555c3.219,2.688,8.328,2.703,11.547,0l188.641-156.797c2.281-1.812,3.547-4.406,3.547-7.203   c0-7.203-9.453-11.609-14.938-7L256,288.664L73,136.57c-1.672-1.406-3.703-2.141-5.859-2.141c-5.016,0-9.109,4.094-9.109,9.125   c0,2.797,1.266,5.391,3.453,7.125L250.219,307.555z"></path></g></svg></g></g></svg>