<svg xmlns="http://www.w3.org/2000/svg" xmlns:xlink="http://www.w3.org/1999/xlink" width="100" height="100" viewBox="0 0 100 100"><g><g transform="translate(50 50) scale(0.69 0.69) rotate(0) translate(-50 -50)" style="fill:#95a0aa;"><svg fill="#95a0aa" xmlns="http://www.w3.org/2000/svg" xmlns:xlink="http://www.w3.org/1999/xlink" version="1.1" x="0px" y="0px" viewBox="0 0 100 100" style="enable-background:new 0 0 100 100;" xml:space="preserve"><g><g><g><path d="M62.9,79.6H33.3c-7.1,0-12.9-5.8-12.9-12.9V22.3h3.7v44.4c0,5.1,4.1,9.2,9.2,9.2h29.6V79.6z"></path></g><g><polygon points="35.8,38.4 22.3,24.9 8.8,38.4 6.2,35.8 22.3,19.7 38.4,35.8    "></polygon></g></g><g><g><path d="M79.6,77.8h-3.7V33.4c0-5.1-4.1-9.2-9.2-9.2H36.1v-3.7h30.5c7.1,0,12.9,5.8,12.9,12.9L79.6,77.8L79.6,77.8z"></path></g><g><polygon points="77.7,80.4 61.6,64.3 64.2,61.7 77.7,75.2 91.2,61.7 93.8,64.3    "></polygon></g></g></g></svg></g></g></svg>