<svg xmlns="http://www.w3.org/2000/svg" xmlns:xlink="http://www.w3.org/1999/xlink" width="100" height="100" viewBox="0 0 100 100"><g><g transform="translate(50 50) scale(0.69 0.69) rotate(0) translate(-50 -50)" style="fill:#95a0aa;"><svg fill="#95a0aa" xmlns="http://www.w3.org/2000/svg" xmlns:xlink="http://www.w3.org/1999/xlink" viewBox="0 0 34 32" version="1.1" x="0px" y="0px"><title>Group 36</title><desc>Created with Sketch.</desc><g stroke="none" stroke-width="1" fill="none" fill-rule="evenodd"><g transform="translate(-328.000000, -480.000000)" fill="#95a0aa"><g transform="translate(328.000000, 480.000000)"><path d="M7,31.92 L5.191,31.92 L6.256,30.458 C7.062,29.353 7.589,27.944 7.859,26.165 C2.835,23.919 0.08,19.625 0.08,14 C0.08,5.414 6.564,0.08 17,0.08 C27.436,0.08 33.92,5.414 33.92,14 C33.92,22.716 27.595,27.92 17,27.92 C16.764,27.92 16.531,27.914 16.299,27.905 C14.71,29.82 11.859,31.92 7,31.92 L7,31.92 Z M17,1.92 C7.558,1.92 1.92,6.436 1.92,14 C1.92,20.489 5.88,23.419 9.202,24.734 L9.855,24.993 L9.777,25.692 C9.593,27.35 9.225,28.768 8.659,29.98 C12.056,29.557 14.036,27.863 15.135,26.412 L15.425,26.029 L16.042,26.054 C16.359,26.067 16.677,26.08 17,26.08 C30.61,26.08 32.08,17.632 32.08,14 C32.08,6.436 26.442,1.92 17,1.92 L17,1.92 Z"></path></g></g></g></svg></g></g></svg>