<?xml version="1.0" encoding="UTF-8" standalone="no"?>
<!DOCTYPE svg PUBLIC "-//W3C//DTD SVG 1.1//EN" "http://www.w3.org/Graphics/SVG/1.1/DTD/svg11.dtd">
<svg version="1.1" xmlns="http://www.w3.org/2000/svg" xmlns:xlink="http://www.w3.org/1999/xlink" preserveAspectRatio="xMidYMid meet" viewBox="0 0 18 18" width="18" height="18"><defs><path d="M6.24 1.25L6.99 1.48L7.71 1.81L8.38 2.25L9 2.79L9.62 2.25L10.29 1.81L11.01 1.48L11.76 1.26L12.52 1.14L13.29 1.14L14.05 1.25L14.78 1.47L15.48 1.81L16.12 2.26L16.82 2.97L17.35 3.74L17.72 4.56L17.93 5.41L18 6.27L17.93 7.11L17.74 7.93L17.43 8.71L17.01 9.42L16.49 10.04L10.32 16.32L10.21 16.43L10.1 16.52L9.98 16.6L9.85 16.67L9.72 16.74L9.58 16.79L9.44 16.83L9.3 16.86L9.15 16.87L9 16.88L8.85 16.87L8.7 16.85L8.56 16.83L8.42 16.79L8.28 16.73L8.15 16.67L8.02 16.6L7.9 16.52L7.79 16.42L7.68 16.32L1.51 10.04L0.99 9.41L0.57 8.7L0.26 7.93L0.07 7.11L0 6.26L0.07 5.41L0.28 4.56L0.65 3.74L1.18 2.97L1.88 2.26L2.52 1.81L3.22 1.47L3.95 1.25L4.71 1.14L5.48 1.14L6.24 1.25ZM11.35 3.13L10.76 3.47L10.23 3.92L9 5.18L7.77 3.92L7.24 3.47L6.65 3.14L6.03 2.91L5.39 2.8L4.74 2.81L4.11 2.94L3.52 3.18L2.97 3.55L2.39 4.16L1.99 4.84L1.76 5.55L1.69 6.28L1.76 7L1.96 7.69L2.28 8.31L2.71 8.85L8.88 15.13L8.91 15.16L8.94 15.18L8.97 15.19L9 15.2L9.03 15.19L9.06 15.18L9.09 15.16L9.12 15.13L15.29 8.85L15.71 8.31L16.04 7.69L16.24 7L16.31 6.28L16.24 5.55L16.01 4.84L15.61 4.16L15.03 3.55L14.49 3.18L13.89 2.94L13.26 2.81L12.62 2.8L11.97 2.91L11.35 3.13Z" id="aAF15empL"></path><path d="M10.71 2.39L13.59 1.84L16.57 3.87L16.57 8.19L8.83 15.88L5.21 12.36L1.04 7.15L2.13 3.58L5.21 1.99L8.83 4.07L10.71 2.39Z" id="b2wHlYnKoJ"></path></defs><g><g><g><use xlink:href="#aAF15empL" opacity="1" fill="#ed4956" fill-opacity="1"></use><g><use xlink:href="#aAF15empL" opacity="1" fill-opacity="0" stroke="#000000" stroke-width="1" stroke-opacity="0"></use></g></g><g><use xlink:href="#b2wHlYnKoJ" opacity="1" fill="#ed4956" fill-opacity="1"></use><g><use xlink:href="#b2wHlYnKoJ" opacity="1" fill-opacity="0" stroke="#ed4956" stroke-width="1" stroke-opacity="1"></use></g></g></g></g></svg>